<?xml version="1.0" encoding="utf-8"?>
<!-- Generator: Adobe Illustrator 18.1.1, SVG Export Plug-In . SVG Version: 6.00 Build 0)  -->
<!DOCTYPE svg PUBLIC "-//W3C//DTD SVG 1.1//EN" "http://www.w3.org/Graphics/SVG/1.1/DTD/svg11.dtd">
<svg version="1.1" id="Layer_1" xmlns="http://www.w3.org/2000/svg" xmlns:xlink="http://www.w3.org/1999/xlink" x="0px" y="0px"
	 viewBox="0 0 1920 1080" enable-background="new 0 0 1920 1080" xml:space="preserve">
<polygon fill="none" stroke="#BE2026" stroke-miterlimit="10" points="68.7,992.8 271.7,782.5 278.9,782.5 242.7,878.2
	122.3,1004.4 "/>
<polygon fill="none" stroke="#BE2026" stroke-miterlimit="10" points="303.6,987 242.7,878.2 377.5,885.5 396.4,910.2 358.7,994.2
	"/>
<polygon fill="none" stroke="#BE2026" stroke-miterlimit="10" points="294.9,744.8 431.2,744.8 377.5,885.5 242.7,878.2 "/>
<polygon fill="none" stroke="#BE2026" stroke-miterlimit="10" points="500.8,744.8 500.8,802.8 444.2,807.2 396.4,910.2
	377.5,885.5 431.2,744.8 "/>
<polygon fill="none" stroke="#BE2026" stroke-miterlimit="10" points="270.2,742 318.1,485.3 339.8,568 336.9,739 "/>
<polygon fill="none" stroke="#BE2026" stroke-miterlimit="10" points="350,452 423.9,742 341.3,742 "/>
<polygon fill="none" stroke="#BE2026" stroke-miterlimit="10" points="476.1,452 350,452 423.9,742 "/>
<polygon fill="none" stroke="#BE2026" stroke-miterlimit="10" points="500.8,739 423.9,742 476.1,452 502.2,675.2 "/>
<polygon fill="none" stroke="#BE2026" stroke-miterlimit="10" points="650.1,1011.7 351.4,1010.2 442.8,810.3 576.2,810.1 "/>
<polygon fill="none" stroke="#BE2026" stroke-miterlimit="10" points="548.6,805.8 497.9,807.2 512.4,512.8 "/>
<polygon fill="none" stroke="#BE2026" stroke-miterlimit="10" points="416.7,417.1 524,392.5 570.4,470.8 567.5,512.8 "/>
<polygon fill="none" stroke="#BE2026" stroke-miterlimit="10" points="609.5,476.6 519.5,393.5 570.4,470.8 "/>
<polyline fill="none" stroke="#BE2026" stroke-miterlimit="10" points="515.4,394.5 597.9,438.9 716.8,443.2 609.5,476.6
	567.5,512.8 566,673.8 653,678.2 655.9,588.2 613.9,588.2 616.8,515.8 564.6,520.1 "/>
<line fill="none" stroke="#BE2026" stroke-miterlimit="10" x1="605.3" y1="476" x2="597.9" y2="438.9"/>
<polygon fill="none" stroke="#BE2026" stroke-miterlimit="10" points="690.7,523 690.7,586.8 613.9,588.2 616.8,515.8 "/>
<polygon fill="none" stroke="#BE2026" stroke-miterlimit="10" points="731.3,515.8 731.3,589.7 690.7,586.8 690.7,523 "/>
<polygon fill="none" stroke="#BE2026" stroke-miterlimit="10" points="822.7,521.5 731.3,515.8 731.3,589.7 655.9,588.2
	653.1,673.8 822.7,679.6 "/>
<polygon fill="none" stroke="#BE2026" stroke-miterlimit="10" points="560.2,676.7 576.2,765.2 628.4,860.8 674.8,875.3
	663.2,785.5 596.5,678.2 "/>
<polygon fill="none" stroke="#BE2026" stroke-miterlimit="10" points="747.3,681 663.2,785.5 674.8,875.3 706.7,873.9 766.1,868.1
	848.8,775.3 838.6,678.2 "/>
<polygon fill="none" stroke="#BE2026" stroke-miterlimit="10" points="596.5,678.2 663.2,785.5 747.3,681 "/>
<path fill="none" stroke="#BE2026" stroke-miterlimit="10" d="M598.9,872.1c2.4,6.5,155.6,7.6,155.6,7.6L669,1003l-60.9-105.9
	L598.9,872.1z"/>
<path fill="none" stroke="#BE2026" stroke-miterlimit="10" d="M644.7,997c0.6,1.7,24.2,6,24.2,6L612.8,910L644.7,997z"/>
<path fill="none" stroke="#BE2026" stroke-miterlimit="10" d="M754.5,879.7l44.9,56.5c1.5,4.3-26.1,66.7-26.1,66.7H669L754.5,879.7z
	"/>
<polygon fill="none" stroke="#BE2026" stroke-miterlimit="10" points="832.8,872.5 799.5,936.2 754.5,879.7 "/>
<polygon fill="none" stroke="#BE2026" stroke-miterlimit="10" points="769,1003 769.8,1001.2 886.5,760.8 912.6,871 874.9,872.5
	880.7,1011.7 "/>
<polygon fill="none" stroke="#BE2026" stroke-miterlimit="10" points="860.4,601.3 832.8,669.5 822.7,663.7 822.7,647.7 "/>
<polygon fill="none" stroke="#BE2026" stroke-miterlimit="10" points="925.6,626 832.8,669.5 860.4,601.3 "/>
<polygon fill="none" stroke="#BE2026" stroke-miterlimit="10" points="973.5,698.5 925.6,626 982.2,604.2 1001,634.7 "/>
<polygon fill="none" stroke="#BE2026" stroke-miterlimit="10" points="874.9,872.5 1204,849.2 1267.8,863.8 935.8,888.4 "/>
<polygon fill="none" stroke="#BE2026" stroke-miterlimit="10" points="905.3,1033.4 935.8,888.4 1272.2,863.8 1231.6,1001.5 "/>
<polygon fill="none" stroke="#BE2026" stroke-miterlimit="10" points="880.4,873.9 935.8,888.4 905.3,1033.4 880.7,1027.6
	874.9,872.5 "/>
<polygon fill="none" stroke="#BE2026" stroke-miterlimit="10" points="716.8,443.2 737.1,516.1 567.4,517.2 609.5,476.6 "/>
<polygon fill="none" stroke="#BE2026" stroke-miterlimit="10" points="1002.5,730.3 943,768 957.5,865.2 995.2,864 "/>
<polygon fill="none" stroke="#BE2026" stroke-miterlimit="10" points="1048.9,536 1002.5,730.3 943,768 "/>
<polygon fill="none" stroke="#BE2026" stroke-miterlimit="10" points="1105.4,781.1 1003.8,724.5 1053.2,534.6 "/>
<polygon fill="none" stroke="#BE2026" stroke-miterlimit="10" points="995.2,864 1066.3,859 1104,785.5 1006.8,728.9 995.5,859.4
	"/>
<polygon fill="none" stroke="#BE2026" stroke-miterlimit="10" points="785,852.2 837.2,853.6 828.5,869.5 754.5,879.7 674.8,875.3
	766.1,868.1 "/>
<polygon fill="none" stroke="#BE2026" stroke-miterlimit="10" points="624,852.8 595,855 598.9,872.1 674.8,875.3 628.4,860.8 "/>
<polygon fill="none" stroke="#BE2026" stroke-miterlimit="10" points="1153.3,850.7 1183.7,807.2 1282.3,810.1 1307,978.3
	1279.4,1003 1231.6,1001.5 1266.4,866.7 1204,849.2 "/>
<polygon fill="none" stroke="#BE2026" stroke-miterlimit="10" points="1351.9,805.8 1404.1,894.2 1307,978.3 1282.3,810.1 "/>
<polygon fill="none" stroke="#BE2026" stroke-miterlimit="10" points="1144.6,559.2 1125.7,376.5 1280.9,434.5 "/>
<polygon fill="none" stroke="#BE2026" stroke-miterlimit="10" points="1314.2,398.3 1357.7,554.9 1280.9,434.5 "/>
<polygon fill="none" stroke="#BE2026" stroke-miterlimit="10" points="1125.7,376.5 1315.7,394 1280.9,434.5 "/>
<polygon fill="none" stroke="#BE2026" stroke-miterlimit="10" points="1144.6,559.2 1357.7,554.9 1280.9,434.5 "/>
<polygon fill="none" stroke="#BE2026" stroke-miterlimit="10" points="1076.2,643.4 1201.1,558.1 1177.9,717.3 1079.9,660.6 "/>
<polygon fill="none" stroke="#BE2026" stroke-miterlimit="10" points="1177.9,556.3 1076.2,643.4 1197.9,560.3 "/>
<polygon fill="none" stroke="#BE2026" stroke-miterlimit="10" points="122.3,1004.4 270.2,988.5 290.2,963.2 242.7,878.2 "/>
<polygon fill="none" stroke="#BE2026" stroke-miterlimit="10" points="1369.3,652 1205.5,556.3 1177.9,717.3 "/>
<polygon fill="none" stroke="#BE2026" stroke-miterlimit="10" points="1320,807.7 1369.3,652 1177.9,717.3 1314.3,808.1 "/>
<polygon fill="none" stroke="#BE2026" stroke-miterlimit="10" points="1133,805.8 1311.3,810.1 1177.9,717.3 "/>
<polygon fill="none" stroke="#BE2026" stroke-miterlimit="10" points="1080.9,665.4 1133,805.8 1177.9,717.3 1079.9,660.6 "/>
<polygon fill="none" stroke="#BE2026" stroke-miterlimit="10" points="1424.4,710 1369.3,652 1320,807.7 "/>
<polygon fill="none" stroke="#BE2026" stroke-miterlimit="10" points="1205.5,556.3 1357.7,554.9 1369.3,652 "/>
<polygon fill="none" stroke="#BE2026" stroke-miterlimit="10" points="1424.4,710 1357.7,554.9 1369.3,652 "/>
<polygon fill="none" stroke="#BE2026" stroke-miterlimit="10" points="1482.4,814.5 1272.2,1013.1 1570.9,830.4 "/>
<polygon fill="none" stroke="#BE2026" stroke-miterlimit="10" points="1618.7,1049.3 1570.9,830.4 1272.2,1013.1 "/>
<polygon fill="none" stroke="#BE2026" stroke-miterlimit="10" points="1757.9,1007.3 1618.7,1049.3 1570.9,830.4 "/>
<polygon fill="none" stroke="#BE2026" stroke-miterlimit="10" points="1392.5,768 1444.7,844.9 1400.4,891.9 1351.9,805.8
	1321.2,804.2 1351.7,778.1 "/>
<polygon fill="none" stroke="#BE2026" stroke-miterlimit="10" points="1475.2,708.6 1392.5,768 1351.7,778.1 1424.4,710
	1410.8,678.4 1486.8,608.5 "/>
<polygon fill="none" stroke="#BE2026" stroke-miterlimit="10" points="1566.5,756.5 1475.2,708.6 1392.5,768 1444.7,844.9
	1482.4,814.5 1538.7,824.6 "/>
<polygon fill="none" stroke="#BE2026" stroke-miterlimit="10" points="1486.8,608.5 1475.2,708.6 1563,754.6 1636.1,765.2
	1628.9,744.8 1634.7,739 1597,702.8 1598.4,684 "/>
<polygon fill="none" stroke="#BE2026" stroke-miterlimit="10" points="1538.7,824.6 1570.9,830.4 1620.2,873.9 1643.4,850.7
	1650.6,811.5 1636.1,765.2 1566.5,756.5 "/>
<polygon fill="none" stroke="#BE2026" stroke-miterlimit="10" points="1643.5,547.7 1597,702.8 1646.3,737.6 1829,740.5 "/>
<polygon fill="none" stroke="#BE2026" stroke-miterlimit="10" points="840,691.2 884.8,764.3 947.4,865.2 957.5,865.2 943,768
	973.5,698.5 925.6,626 832.8,669.5 831.4,678.4 838.6,678.2 "/>
<polygon fill="none" stroke="#BE2026" stroke-miterlimit="10" points="1653.5,805.8 1638.6,894.5 1708,960.1 1657.9,802.8 "/>
<polygon fill="none" stroke="#BE2026" stroke-miterlimit="10" points="1634.7,739 1755,994.2 1744.5,994.6 1708,960.1 "/>
<polygon fill="none" stroke="#BE2026" stroke-miterlimit="10" points="1734.7,744.8 1755,994.2 1634.7,739 "/>
<polygon fill="none" stroke="#BE2026" stroke-miterlimit="10" points="1771,739.6 1740.2,812.9 1734.7,744.8 "/>
<polygon fill="none" stroke="#BE2026" stroke-miterlimit="10" points="1752.1,802.8 1743.8,856.6 1786.9,843.5 "/>
<polygon fill="none" stroke="#BE2026" stroke-miterlimit="10" points="1821.7,831.8 1769.5,895.7 1745.7,879.6 1743.8,856.6 "/>
<polygon fill="none" stroke="#BE2026" stroke-miterlimit="10" points="1821.7,900 1821.7,831.8 1769.5,895.7 1818.8,904.3 "/>
<polygon fill="none" stroke="#BE2026" stroke-miterlimit="10" points="1808.7,966.7 1818.8,904.3 1769.5,895.7 "/>
<polygon fill="none" stroke="#BE2026" stroke-miterlimit="10" points="1750.5,939 1769.5,895.7 1808.7,966.7 "/>
<polygon fill="none" stroke="#BE2026" stroke-miterlimit="10" points="1863.8,908.7 1813.6,936.3 1821.7,900 "/>
<polygon fill="none" stroke="#BE2026" stroke-miterlimit="10" points="1821.7,881.2 1863.8,908.7 1821.7,900 "/>
<polygon fill="none" stroke="#BE2026" stroke-miterlimit="10" points="1766.6,976.8 1808.7,966.7 1750.5,939 1753.8,979.7 "/>
</svg>
